  0
SECTION
  2
HEADER
  9
$ACADVER
  1
AC1009
  9
$FILLMODE
 70
 0
  9
$SPLFRAME
 70
 1
  9
$EXTMIN
 10
0
 20
0
 30
0.0
  9
$EXTMAX
 10
1058.33
 20
1058.33
 30
0.0
  0
ENDSEC
  0
SECTION
  2
TABLES
  0
TABLE
  2
LAYER
 70
1
  0
LAYER
  2
0
 70
     0
 62
     7
  6
CONTINUOUS
  0
ENDTAB
  0
ENDSEC
  0
SECTION
  2
ENTITIES
  0
LINE
  8
0
 62
     0
 10
0.0950846
 20
113.852
 30
0.0
 11
149.305
 21
113.852
 31
0.0
  0
LINE
  8
0
 62
     0
 10
149.305
 20
113.852
 30
0.0
 11
149.305
 21
0.361047
 31
0.0
  0
LINE
  8
0
 62
     0
 10
149.305
 20
0.361047
 30
0.0
 11
0.0950846
 21
0.361047
 31
0.0
  0
LINE
  8
0
 62
     0
 10
0.0950846
 20
0.361047
 30
0.0
 11
0.0950846
 21
113.852
 31
0.0
  0
LINE
  8
0
 62
     0
 10
123.158
 20
16.9981
 30
0.0
 11
135.282
 21
9.99765
 31
0.0
  0
LINE
  8
0
 62
     0
 10
135.282
 20
9.99765
 30
0.0
 11
142.282
 21
22.123
 31
0.0
  0
LINE
  8
0
 62
     0
 10
142.282
 20
22.123
 30
0.0
 11
130.158
 21
29.1221
 31
0.0
  0
LINE
  8
0
 62
     0
 10
130.158
 20
29.1221
 30
0.0
 11
123.158
 21
16.9981
 31
0.0
  0
LINE
  8
0
 62
     0
 10
97.8475
 20
17.8373
 30
0.0
 11
111.37
 21
14.2145
 31
0.0
  0
LINE
  8
0
 62
     0
 10
111.37
 20
14.2145
 30
0.0
 11
114.993
 21
27.7372
 31
0.0
  0
LINE
  8
0
 62
     0
 10
114.993
 20
27.7372
 30
0.0
 11
101.471
 21
31.3614
 31
0.0
  0
LINE
  8
0
 62
     0
 10
101.471
 20
31.3614
 30
0.0
 11
97.8475
 21
17.8373
 31
0.0
  0
LINE
  8
0
 62
     0
 10
78.8197
 20
32.6512
 30
0.0
 11
92.819
 21
32.6512
 31
0.0
  0
LINE
  8
0
 62
     0
 10
92.819
 20
32.6512
 30
0.0
 11
92.819
 21
18.6517
 31
0.0
  0
LINE
  8
0
 62
     0
 10
92.819
 20
18.6517
 30
0.0
 11
78.8197
 21
18.6517
 31
0.0
  0
LINE
  8
0
 62
     0
 10
78.8197
 20
18.6517
 30
0.0
 11
78.8197
 21
32.6512
 31
0.0
  0
LINE
  8
0
 62
     0
 10
12.1447
 20
46.9403
 30
0.0
 11
26.1441
 21
46.9403
 31
0.0
  0
LINE
  8
0
 62
     0
 10
26.1441
 20
46.9403
 30
0.0
 11
26.1441
 21
32.9392
 31
0.0
  0
LINE
  8
0
 62
     0
 10
26.1441
 20
32.9392
 30
0.0
 11
12.1447
 21
32.9392
 31
0.0
  0
LINE
  8
0
 62
     0
 10
12.1447
 20
32.9392
 30
0.0
 11
12.1447
 21
46.9403
 31
0.0
  0
LINE
  8
0
 62
     0
 10
31.1947
 20
47.0352
 30
0.0
 11
45.194
 21
47.0352
 31
0.0
  0
LINE
  8
0
 62
     0
 10
45.194
 20
47.0352
 30
0.0
 11
45.194
 21
33.0343
 31
0.0
  0
LINE
  8
0
 62
     0
 10
45.194
 20
33.0343
 30
0.0
 11
31.1947
 21
33.0343
 31
0.0
  0
LINE
  8
0
 62
     0
 10
31.1947
 20
33.0343
 30
0.0
 11
31.1947
 21
47.0352
 31
0.0
  0
LINE
  8
0
 62
     0
 10
107.395
 20
49.415
 30
0.0
 11
121.394
 21
49.415
 31
0.0
  0
LINE
  8
0
 62
     0
 10
121.394
 20
49.415
 30
0.0
 11
121.394
 21
35.4157
 31
0.0
  0
LINE
  8
0
 62
     0
 10
121.394
 20
35.4157
 30
0.0
 11
107.395
 21
35.4157
 31
0.0
  0
LINE
  8
0
 62
     0
 10
107.395
 20
35.4157
 30
0.0
 11
107.395
 21
49.415
 31
0.0
  0
LINE
  8
0
 62
     0
 10
50.2447
 20
51.7962
 30
0.0
 11
64.244
 21
51.7962
 31
0.0
  0
LINE
  8
0
 62
     0
 10
64.244
 20
51.7962
 30
0.0
 11
64.244
 21
37.797
 31
0.0
  0
LINE
  8
0
 62
     0
 10
64.244
 20
37.797
 30
0.0
 11
50.2447
 21
37.797
 31
0.0
  0
LINE
  8
0
 62
     0
 10
50.2447
 20
37.797
 30
0.0
 11
50.2447
 21
51.7962
 31
0.0
  0
LINE
  8
0
 62
     0
 10
88.3447
 20
51.7962
 30
0.0
 11
102.344
 21
51.7962
 31
0.0
  0
LINE
  8
0
 62
     0
 10
102.344
 20
51.7962
 30
0.0
 11
102.344
 21
37.797
 31
0.0
  0
LINE
  8
0
 62
     0
 10
102.344
 20
37.797
 30
0.0
 11
88.3447
 21
37.797
 31
0.0
  0
LINE
  8
0
 62
     0
 10
88.3447
 20
37.797
 30
0.0
 11
88.3447
 21
51.7962
 31
0.0
  0
LINE
  8
0
 62
     0
 10
69.2947
 20
54.1775
 30
0.0
 11
83.294
 21
54.1775
 31
0.0
  0
LINE
  8
0
 62
     0
 10
83.294
 20
54.1775
 30
0.0
 11
83.294
 21
40.1782
 31
0.0
  0
LINE
  8
0
 62
     0
 10
83.294
 20
40.1782
 30
0.0
 11
69.2947
 21
40.1782
 31
0.0
  0
LINE
  8
0
 62
     0
 10
69.2947
 20
40.1782
 30
0.0
 11
69.2947
 21
54.1775
 31
0.0
  0
LINE
  8
0
 62
     0
 10
12.1447
 20
65.9888
 30
0.0
 11
26.1441
 21
65.9888
 31
0.0
  0
LINE
  8
0
 62
     0
 10
26.1441
 20
65.9888
 30
0.0
 11
26.1441
 21
51.9892
 31
0.0
  0
LINE
  8
0
 62
     0
 10
26.1441
 20
51.9892
 30
0.0
 11
12.1447
 21
51.9892
 31
0.0
  0
LINE
  8
0
 62
     0
 10
12.1447
 20
51.9892
 30
0.0
 11
12.1447
 21
65.9888
 31
0.0
  0
LINE
  8
0
 62
     0
 10
31.1947
 20
66.0852
 30
0.0
 11
45.194
 21
66.0852
 31
0.0
  0
LINE
  8
0
 62
     0
 10
45.194
 20
66.0852
 30
0.0
 11
45.194
 21
52.0845
 31
0.0
  0
LINE
  8
0
 62
     0
 10
45.194
 20
52.0845
 30
0.0
 11
31.1947
 21
52.0845
 31
0.0
  0
LINE
  8
0
 62
     0
 10
31.1947
 20
52.0845
 30
0.0
 11
31.1947
 21
66.0852
 31
0.0
  0
LINE
  8
0
 62
     0
 10
107.395
 20
68.465
 30
0.0
 11
121.394
 21
68.465
 31
0.0
  0
LINE
  8
0
 62
     0
 10
121.394
 20
68.465
 30
0.0
 11
121.394
 21
54.4657
 31
0.0
  0
LINE
  8
0
 62
     0
 10
121.394
 20
54.4657
 30
0.0
 11
107.395
 21
54.4657
 31
0.0
  0
LINE
  8
0
 62
     0
 10
107.395
 20
54.4657
 30
0.0
 11
107.395
 21
68.465
 31
0.0
  0
LINE
  8
0
 62
     0
 10
50.2447
 20
70.8462
 30
0.0
 11
64.244
 21
70.8462
 31
0.0
  0
LINE
  8
0
 62
     0
 10
64.244
 20
70.8462
 30
0.0
 11
64.244
 21
56.847
 31
0.0
  0
LINE
  8
0
 62
     0
 10
64.244
 20
56.847
 30
0.0
 11
50.2447
 21
56.847
 31
0.0
  0
LINE
  8
0
 62
     0
 10
50.2447
 20
56.847
 30
0.0
 11
50.2447
 21
70.8462
 31
0.0
  0
LINE
  8
0
 62
     0
 10
88.3447
 20
70.8462
 30
0.0
 11
102.344
 21
70.8462
 31
0.0
  0
LINE
  8
0
 62
     0
 10
102.344
 20
70.8462
 30
0.0
 11
102.344
 21
56.847
 31
0.0
  0
LINE
  8
0
 62
     0
 10
102.344
 20
56.847
 30
0.0
 11
88.3447
 21
56.847
 31
0.0
  0
LINE
  8
0
 62
     0
 10
88.3447
 20
56.847
 30
0.0
 11
88.3447
 21
70.8462
 31
0.0
  0
LINE
  8
0
 62
     0
 10
69.2947
 20
73.2275
 30
0.0
 11
83.294
 21
73.2275
 31
0.0
  0
LINE
  8
0
 62
     0
 10
83.294
 20
73.2275
 30
0.0
 11
83.294
 21
59.2282
 31
0.0
  0
LINE
  8
0
 62
     0
 10
83.294
 20
59.2282
 30
0.0
 11
69.2947
 21
59.2282
 31
0.0
  0
LINE
  8
0
 62
     0
 10
69.2947
 20
59.2282
 30
0.0
 11
69.2947
 21
73.2275
 31
0.0
  0
LINE
  8
0
 62
     0
 10
12.1447
 20
85.0388
 30
0.0
 11
26.1441
 21
85.0388
 31
0.0
  0
LINE
  8
0
 62
     0
 10
26.1441
 20
85.0388
 30
0.0
 11
26.1441
 21
71.0392
 31
0.0
  0
LINE
  8
0
 62
     0
 10
26.1441
 20
71.0392
 30
0.0
 11
12.1447
 21
71.0392
 31
0.0
  0
LINE
  8
0
 62
     0
 10
12.1447
 20
71.0392
 30
0.0
 11
12.1447
 21
85.0388
 31
0.0
  0
LINE
  8
0
 62
     0
 10
31.1947
 20
85.1352
 30
0.0
 11
45.194
 21
85.1352
 31
0.0
  0
LINE
  8
0
 62
     0
 10
45.194
 20
85.1352
 30
0.0
 11
45.194
 21
71.1345
 31
0.0
  0
LINE
  8
0
 62
     0
 10
45.194
 20
71.1345
 30
0.0
 11
31.1947
 21
71.1345
 31
0.0
  0
LINE
  8
0
 62
     0
 10
31.1947
 20
71.1345
 30
0.0
 11
31.1947
 21
85.1352
 31
0.0
  0
LINE
  8
0
 62
     0
 10
107.395
 20
87.515
 30
0.0
 11
121.394
 21
87.515
 31
0.0
  0
LINE
  8
0
 62
     0
 10
121.394
 20
87.515
 30
0.0
 11
121.394
 21
73.5157
 31
0.0
  0
LINE
  8
0
 62
     0
 10
121.394
 20
73.5157
 30
0.0
 11
107.395
 21
73.5157
 31
0.0
  0
LINE
  8
0
 62
     0
 10
107.395
 20
73.5157
 30
0.0
 11
107.395
 21
87.515
 31
0.0
  0
LINE
  8
0
 62
     0
 10
50.2447
 20
89.8962
 30
0.0
 11
64.244
 21
89.8962
 31
0.0
  0
LINE
  8
0
 62
     0
 10
64.244
 20
89.8962
 30
0.0
 11
64.244
 21
75.897
 31
0.0
  0
LINE
  8
0
 62
     0
 10
64.244
 20
75.897
 30
0.0
 11
50.2447
 21
75.897
 31
0.0
  0
LINE
  8
0
 62
     0
 10
50.2447
 20
75.897
 30
0.0
 11
50.2447
 21
89.8962
 31
0.0
  0
LINE
  8
0
 62
     0
 10
88.3447
 20
89.8962
 30
0.0
 11
102.344
 21
89.8962
 31
0.0
  0
LINE
  8
0
 62
     0
 10
102.344
 20
89.8962
 30
0.0
 11
102.344
 21
75.897
 31
0.0
  0
LINE
  8
0
 62
     0
 10
102.344
 20
75.897
 30
0.0
 11
88.3447
 21
75.897
 31
0.0
  0
LINE
  8
0
 62
     0
 10
88.3447
 20
75.897
 30
0.0
 11
88.3447
 21
89.8962
 31
0.0
  0
LINE
  8
0
 62
     0
 10
69.2947
 20
92.2775
 30
0.0
 11
83.294
 21
92.2775
 31
0.0
  0
LINE
  8
0
 62
     0
 10
83.294
 20
92.2775
 30
0.0
 11
83.294
 21
78.2782
 31
0.0
  0
LINE
  8
0
 62
     0
 10
83.294
 20
78.2782
 30
0.0
 11
69.2947
 21
78.2782
 31
0.0
  0
LINE
  8
0
 62
     0
 10
69.2947
 20
78.2782
 30
0.0
 11
69.2947
 21
92.2775
 31
0.0
  0
LINE
  8
0
 62
     0
 10
12.1447
 20
104.089
 30
0.0
 11
26.1441
 21
104.089
 31
0.0
  0
LINE
  8
0
 62
     0
 10
26.1441
 20
104.089
 30
0.0
 11
26.1441
 21
90.0892
 31
0.0
  0
LINE
  8
0
 62
     0
 10
26.1441
 20
90.0892
 30
0.0
 11
12.1447
 21
90.0892
 31
0.0
  0
LINE
  8
0
 62
     0
 10
12.1447
 20
90.0892
 30
0.0
 11
12.1447
 21
104.089
 31
0.0
  0
LINE
  8
0
 62
     0
 10
31.1947
 20
104.185
 30
0.0
 11
45.194
 21
104.185
 31
0.0
  0
LINE
  8
0
 62
     0
 10
45.194
 20
104.185
 30
0.0
 11
45.194
 21
90.1845
 31
0.0
  0
LINE
  8
0
 62
     0
 10
45.194
 20
90.1845
 30
0.0
 11
31.1947
 21
90.1845
 31
0.0
  0
LINE
  8
0
 62
     0
 10
31.1947
 20
90.1845
 30
0.0
 11
31.1947
 21
104.185
 31
0.0
  0
LINE
  8
0
 62
     0
 10
107.395
 20
106.565
 30
0.0
 11
121.394
 21
106.565
 31
0.0
  0
LINE
  8
0
 62
     0
 10
121.394
 20
106.565
 30
0.0
 11
121.394
 21
92.5657
 31
0.0
  0
LINE
  8
0
 62
     0
 10
121.394
 20
92.5657
 30
0.0
 11
107.395
 21
92.5657
 31
0.0
  0
LINE
  8
0
 62
     0
 10
107.395
 20
92.5657
 30
0.0
 11
107.395
 21
106.565
 31
0.0
  0
LINE
  8
0
 62
     0
 10
50.2447
 20
108.946
 30
0.0
 11
64.244
 21
108.946
 31
0.0
  0
LINE
  8
0
 62
     0
 10
64.244
 20
108.946
 30
0.0
 11
64.244
 21
94.947
 31
0.0
  0
LINE
  8
0
 62
     0
 10
64.244
 20
94.947
 30
0.0
 11
50.2447
 21
94.947
 31
0.0
  0
LINE
  8
0
 62
     0
 10
50.2447
 20
94.947
 30
0.0
 11
50.2447
 21
108.946
 31
0.0
  0
LINE
  8
0
 62
     0
 10
88.3447
 20
108.946
 30
0.0
 11
102.344
 21
108.946
 31
0.0
  0
LINE
  8
0
 62
     0
 10
102.344
 20
108.946
 30
0.0
 11
102.344
 21
94.947
 31
0.0
  0
LINE
  8
0
 62
     0
 10
102.344
 20
94.947
 30
0.0
 11
88.3447
 21
94.947
 31
0.0
  0
LINE
  8
0
 62
     0
 10
88.3447
 20
94.947
 30
0.0
 11
88.3447
 21
108.946
 31
0.0
  0
LINE
  8
0
 62
     0
 10
69.2947
 20
111.327
 30
0.0
 11
83.294
 21
111.327
 31
0.0
  0
LINE
  8
0
 62
     0
 10
83.294
 20
111.327
 30
0.0
 11
83.294
 21
97.3282
 31
0.0
  0
LINE
  8
0
 62
     0
 10
83.294
 20
97.3282
 30
0.0
 11
69.2947
 21
97.3282
 31
0.0
  0
LINE
  8
0
 62
     0
 10
69.2947
 20
97.3282
 30
0.0
 11
69.2947
 21
111.327
 31
0.0
  0
ENDSEC
  0
EOF
