<svg width="352.425mm" height="110.962mm" viewBox="0 0 352.425 110.962" xmlns="http://www.w3.org/2000/svg"><g id="svgGroup" stroke-linecap="round" fill-rule="evenodd" font-size="9pt" stroke="#000" stroke-width="0.25mm" fill="none" style="stroke:#000;stroke-width:0.25mm;fill:none"><path d="M 0 110.962 L 352.425 110.962 L 352.425 0 L 0 0 L 0 110.962 Z M 247.533 85.986 L 260.09 82.621 A 0.5 0.5 0 0 1 260.703 82.975 L 264.067 95.532 A 0.5 0.5 0 0 1 263.714 96.144 L 251.157 99.509 A 0.5 0.5 0 0 1 250.544 99.156 L 247.18 86.599 A 0.5 0.5 0 0 1 247.533 85.986 Z M 92.335 82.621 L 104.892 85.986 A 0.5 0.5 0 0 1 105.245 86.599 L 101.881 99.156 A 0.5 0.5 0 0 1 101.268 99.509 L 88.711 96.144 A 0.5 0.5 0 0 1 88.358 95.532 L 91.722 82.975 A 0.5 0.5 0 0 1 92.335 82.621 Z M 98.275 7.288 L 111.275 7.288 A 0.5 0.5 0 0 1 111.775 7.788 L 111.775 20.788 A 0.5 0.5 0 0 1 111.275 21.288 L 98.275 21.288 A 0.5 0.5 0 0 1 97.775 20.788 L 97.775 7.788 A 0.5 0.5 0 0 1 98.275 7.288 Z M 241.15 7.288 L 254.15 7.288 A 0.5 0.5 0 0 1 254.65 7.788 L 254.65 20.788 A 0.5 0.5 0 0 1 254.15 21.288 L 241.15 21.288 A 0.5 0.5 0 0 1 240.65 20.788 L 240.65 7.788 A 0.5 0.5 0 0 1 241.15 7.288 Z M 41.125 4.906 L 54.125 4.906 A 0.5 0.5 0 0 1 54.625 5.406 L 54.625 18.406 A 0.5 0.5 0 0 1 54.125 18.906 L 41.125 18.906 A 0.5 0.5 0 0 1 40.625 18.406 L 40.625 5.406 A 0.5 0.5 0 0 1 41.125 4.906 Z M 79.225 4.906 L 92.225 4.906 A 0.5 0.5 0 0 1 92.725 5.406 L 92.725 18.406 A 0.5 0.5 0 0 1 92.225 18.906 L 79.225 18.906 A 0.5 0.5 0 0 1 78.725 18.406 L 78.725 5.406 A 0.5 0.5 0 0 1 79.225 4.906 Z M 260.2 4.906 L 273.2 4.906 A 0.5 0.5 0 0 1 273.7 5.406 L 273.7 18.406 A 0.5 0.5 0 0 1 273.2 18.906 L 260.2 18.906 A 0.5 0.5 0 0 1 259.7 18.406 L 259.7 5.406 A 0.5 0.5 0 0 1 260.2 4.906 Z M 298.3 4.906 L 311.3 4.906 A 0.5 0.5 0 0 1 311.8 5.406 L 311.8 18.406 A 0.5 0.5 0 0 1 311.3 18.906 L 298.3 18.906 A 0.5 0.5 0 0 1 297.8 18.406 L 297.8 5.406 A 0.5 0.5 0 0 1 298.3 4.906 Z M 22.075 9.669 L 35.075 9.669 A 0.5 0.5 0 0 1 35.575 10.169 L 35.575 23.169 A 0.5 0.5 0 0 1 35.075 23.669 L 22.075 23.669 A 0.5 0.5 0 0 1 21.575 23.169 L 21.575 10.169 A 0.5 0.5 0 0 1 22.075 9.669 Z M 317.35 9.669 L 330.35 9.669 A 0.5 0.5 0 0 1 330.85 10.169 L 330.85 23.169 A 0.5 0.5 0 0 1 330.35 23.669 L 317.35 23.669 A 0.5 0.5 0 0 1 316.85 23.169 L 316.85 10.169 A 0.5 0.5 0 0 1 317.35 9.669 Z M 3.025 9.764 L 16.025 9.764 A 0.5 0.5 0 0 1 16.525 10.264 L 16.525 23.264 A 0.5 0.5 0 0 1 16.025 23.764 L 3.025 23.764 A 0.5 0.5 0 0 1 2.525 23.264 L 2.525 10.264 A 0.5 0.5 0 0 1 3.025 9.764 Z M 336.4 9.764 L 349.4 9.764 A 0.5 0.5 0 0 1 349.9 10.264 L 349.9 23.264 A 0.5 0.5 0 0 1 349.4 23.764 L 336.4 23.764 A 0.5 0.5 0 0 1 335.9 23.264 L 335.9 10.264 A 0.5 0.5 0 0 1 336.4 9.764 Z M 60.175 21.575 L 73.175 21.575 A 0.5 0.5 0 0 1 73.675 22.075 L 73.675 35.075 A 0.5 0.5 0 0 1 73.175 35.575 L 60.175 35.575 A 0.5 0.5 0 0 1 59.675 35.075 L 59.675 22.075 A 0.5 0.5 0 0 1 60.175 21.575 Z M 279.25 21.575 L 292.25 21.575 A 0.5 0.5 0 0 1 292.75 22.075 L 292.75 35.075 A 0.5 0.5 0 0 1 292.25 35.575 L 279.25 35.575 A 0.5 0.5 0 0 1 278.75 35.075 L 278.75 22.075 A 0.5 0.5 0 0 1 279.25 21.575 Z M 98.275 26.338 L 111.275 26.338 A 0.5 0.5 0 0 1 111.775 26.838 L 111.775 39.838 A 0.5 0.5 0 0 1 111.275 40.338 L 98.275 40.338 A 0.5 0.5 0 0 1 97.775 39.838 L 97.775 26.838 A 0.5 0.5 0 0 1 98.275 26.338 Z M 241.15 26.338 L 254.15 26.338 A 0.5 0.5 0 0 1 254.65 26.838 L 254.65 39.838 A 0.5 0.5 0 0 1 254.15 40.338 L 241.15 40.338 A 0.5 0.5 0 0 1 240.65 39.838 L 240.65 26.838 A 0.5 0.5 0 0 1 241.15 26.338 Z M 22.075 28.719 L 35.075 28.719 A 0.5 0.5 0 0 1 35.575 29.219 L 35.575 42.219 A 0.5 0.5 0 0 1 35.075 42.719 L 22.075 42.719 A 0.5 0.5 0 0 1 21.575 42.219 L 21.575 29.219 A 0.5 0.5 0 0 1 22.075 28.719 Z M 317.35 28.719 L 330.35 28.719 A 0.5 0.5 0 0 1 330.85 29.219 L 330.85 42.219 A 0.5 0.5 0 0 1 330.35 42.719 L 317.35 42.719 A 0.5 0.5 0 0 1 316.85 42.219 L 316.85 29.219 A 0.5 0.5 0 0 1 317.35 28.719 Z M 3.025 28.814 L 16.025 28.814 A 0.5 0.5 0 0 1 16.525 29.314 L 16.525 42.314 A 0.5 0.5 0 0 1 16.025 42.814 L 3.025 42.814 A 0.5 0.5 0 0 1 2.525 42.314 L 2.525 29.314 A 0.5 0.5 0 0 1 3.025 28.814 Z M 336.4 28.814 L 349.4 28.814 A 0.5 0.5 0 0 1 349.9 29.314 L 349.9 42.314 A 0.5 0.5 0 0 1 349.4 42.814 L 336.4 42.814 A 0.5 0.5 0 0 1 335.9 42.314 L 335.9 29.314 A 0.5 0.5 0 0 1 336.4 28.814 Z M 60.175 40.625 L 73.175 40.625 A 0.5 0.5 0 0 1 73.675 41.125 L 73.675 54.125 A 0.5 0.5 0 0 1 73.175 54.625 L 60.175 54.625 A 0.5 0.5 0 0 1 59.675 54.125 L 59.675 41.125 A 0.5 0.5 0 0 1 60.175 40.625 Z M 279.25 40.625 L 292.25 40.625 A 0.5 0.5 0 0 1 292.75 41.125 L 292.75 54.125 A 0.5 0.5 0 0 1 292.25 54.625 L 279.25 54.625 A 0.5 0.5 0 0 1 278.75 54.125 L 278.75 41.125 A 0.5 0.5 0 0 1 279.25 40.625 Z M 41.125 43.006 L 54.125 43.006 A 0.5 0.5 0 0 1 54.625 43.506 L 54.625 56.506 A 0.5 0.5 0 0 1 54.125 57.006 L 41.125 57.006 A 0.5 0.5 0 0 1 40.625 56.506 L 40.625 43.506 A 0.5 0.5 0 0 1 41.125 43.006 Z M 79.225 43.006 L 92.225 43.006 A 0.5 0.5 0 0 1 92.725 43.506 L 92.725 56.506 A 0.5 0.5 0 0 1 92.225 57.006 L 79.225 57.006 A 0.5 0.5 0 0 1 78.725 56.506 L 78.725 43.506 A 0.5 0.5 0 0 1 79.225 43.006 Z M 260.2 43.006 L 273.2 43.006 A 0.5 0.5 0 0 1 273.7 43.506 L 273.7 56.506 A 0.5 0.5 0 0 1 273.2 57.006 L 260.2 57.006 A 0.5 0.5 0 0 1 259.7 56.506 L 259.7 43.506 A 0.5 0.5 0 0 1 260.2 43.006 Z M 298.3 43.006 L 311.3 43.006 A 0.5 0.5 0 0 1 311.8 43.506 L 311.8 56.506 A 0.5 0.5 0 0 1 311.3 57.006 L 298.3 57.006 A 0.5 0.5 0 0 1 297.8 56.506 L 297.8 43.506 A 0.5 0.5 0 0 1 298.3 43.006 Z M 98.275 45.388 L 111.275 45.388 A 0.5 0.5 0 0 1 111.775 45.888 L 111.775 58.888 A 0.5 0.5 0 0 1 111.275 59.388 L 98.275 59.388 A 0.5 0.5 0 0 1 97.775 58.888 L 97.775 45.888 A 0.5 0.5 0 0 1 98.275 45.388 Z M 241.15 45.388 L 254.15 45.388 A 0.5 0.5 0 0 1 254.65 45.888 L 254.65 58.888 A 0.5 0.5 0 0 1 254.15 59.388 L 241.15 59.388 A 0.5 0.5 0 0 1 240.65 58.888 L 240.65 45.888 A 0.5 0.5 0 0 1 241.15 45.388 Z M 22.075 47.769 L 35.075 47.769 A 0.5 0.5 0 0 1 35.575 48.269 L 35.575 61.269 A 0.5 0.5 0 0 1 35.075 61.769 L 22.075 61.769 A 0.5 0.5 0 0 1 21.575 61.269 L 21.575 48.269 A 0.5 0.5 0 0 1 22.075 47.769 Z M 317.35 47.769 L 330.35 47.769 A 0.5 0.5 0 0 1 330.85 48.269 L 330.85 61.269 A 0.5 0.5 0 0 1 330.35 61.769 L 317.35 61.769 A 0.5 0.5 0 0 1 316.85 61.269 L 316.85 48.269 A 0.5 0.5 0 0 1 317.35 47.769 Z M 3.025 47.864 L 16.025 47.864 A 0.5 0.5 0 0 1 16.525 48.364 L 16.525 61.364 A 0.5 0.5 0 0 1 16.025 61.864 L 3.025 61.864 A 0.5 0.5 0 0 1 2.525 61.364 L 2.525 48.364 A 0.5 0.5 0 0 1 3.025 47.864 Z M 336.4 47.864 L 349.4 47.864 A 0.5 0.5 0 0 1 349.9 48.364 L 349.9 61.364 A 0.5 0.5 0 0 1 349.4 61.864 L 336.4 61.864 A 0.5 0.5 0 0 1 335.9 61.364 L 335.9 48.364 A 0.5 0.5 0 0 1 336.4 47.864 Z M 60.175 59.675 L 73.175 59.675 A 0.5 0.5 0 0 1 73.675 60.175 L 73.675 73.175 A 0.5 0.5 0 0 1 73.175 73.675 L 60.175 73.675 A 0.5 0.5 0 0 1 59.675 73.175 L 59.675 60.175 A 0.5 0.5 0 0 1 60.175 59.675 Z M 279.25 59.675 L 292.25 59.675 A 0.5 0.5 0 0 1 292.75 60.175 L 292.75 73.175 A 0.5 0.5 0 0 1 292.25 73.675 L 279.25 73.675 A 0.5 0.5 0 0 1 278.75 73.175 L 278.75 60.175 A 0.5 0.5 0 0 1 279.25 59.675 Z M 41.125 62.056 L 54.125 62.056 A 0.5 0.5 0 0 1 54.625 62.556 L 54.625 75.556 A 0.5 0.5 0 0 1 54.125 76.056 L 41.125 76.056 A 0.5 0.5 0 0 1 40.625 75.556 L 40.625 62.556 A 0.5 0.5 0 0 1 41.125 62.056 Z M 79.225 62.056 L 92.225 62.056 A 0.5 0.5 0 0 1 92.725 62.556 L 92.725 75.556 A 0.5 0.5 0 0 1 92.225 76.056 L 79.225 76.056 A 0.5 0.5 0 0 1 78.725 75.556 L 78.725 62.556 A 0.5 0.5 0 0 1 79.225 62.056 Z M 260.2 62.056 L 273.2 62.056 A 0.5 0.5 0 0 1 273.7 62.556 L 273.7 75.556 A 0.5 0.5 0 0 1 273.2 76.056 L 260.2 76.056 A 0.5 0.5 0 0 1 259.7 75.556 L 259.7 62.556 A 0.5 0.5 0 0 1 260.2 62.056 Z M 298.3 62.056 L 311.3 62.056 A 0.5 0.5 0 0 1 311.8 62.556 L 311.8 75.556 A 0.5 0.5 0 0 1 311.3 76.056 L 298.3 76.056 A 0.5 0.5 0 0 1 297.8 75.556 L 297.8 62.556 A 0.5 0.5 0 0 1 298.3 62.056 Z M 98.275 64.438 L 111.275 64.438 A 0.5 0.5 0 0 1 111.775 64.938 L 111.775 77.938 A 0.5 0.5 0 0 1 111.275 78.438 L 98.275 78.438 A 0.5 0.5 0 0 1 97.775 77.938 L 97.775 64.938 A 0.5 0.5 0 0 1 98.275 64.438 Z M 241.15 64.438 L 254.15 64.438 A 0.5 0.5 0 0 1 254.65 64.938 L 254.65 77.938 A 0.5 0.5 0 0 1 254.15 78.438 L 241.15 78.438 A 0.5 0.5 0 0 1 240.65 77.938 L 240.65 64.938 A 0.5 0.5 0 0 1 241.15 64.438 Z M 22.075 66.819 L 35.075 66.819 A 0.5 0.5 0 0 1 35.575 67.319 L 35.575 80.319 A 0.5 0.5 0 0 1 35.075 80.819 L 22.075 80.819 A 0.5 0.5 0 0 1 21.575 80.319 L 21.575 67.319 A 0.5 0.5 0 0 1 22.075 66.819 Z M 317.35 66.819 L 330.35 66.819 A 0.5 0.5 0 0 1 330.85 67.319 L 330.85 80.319 A 0.5 0.5 0 0 1 330.35 80.819 L 317.35 80.819 A 0.5 0.5 0 0 1 316.85 80.319 L 316.85 67.319 A 0.5 0.5 0 0 1 317.35 66.819 Z M 3.025 66.914 L 16.025 66.914 A 0.5 0.5 0 0 1 16.525 67.414 L 16.525 80.414 A 0.5 0.5 0 0 1 16.025 80.914 L 3.025 80.914 A 0.5 0.5 0 0 1 2.525 80.414 L 2.525 67.414 A 0.5 0.5 0 0 1 3.025 66.914 Z M 336.4 66.914 L 349.4 66.914 A 0.5 0.5 0 0 1 349.9 67.414 L 349.9 80.414 A 0.5 0.5 0 0 1 349.4 80.914 L 336.4 80.914 A 0.5 0.5 0 0 1 335.9 80.414 L 335.9 67.414 A 0.5 0.5 0 0 1 336.4 66.914 Z M 69.7 81.202 L 82.7 81.202 A 0.5 0.5 0 0 1 83.2 81.702 L 83.2 94.702 A 0.5 0.5 0 0 1 82.7 95.202 L 69.7 95.202 A 0.5 0.5 0 0 1 69.2 94.702 L 69.2 81.702 A 0.5 0.5 0 0 1 69.7 81.202 Z M 269.725 81.202 L 282.725 81.202 A 0.5 0.5 0 0 1 283.225 81.702 L 283.225 94.702 A 0.5 0.5 0 0 1 282.725 95.202 L 269.725 95.202 A 0.5 0.5 0 0 1 269.225 94.702 L 269.225 81.702 A 0.5 0.5 0 0 1 269.725 81.202 Z M 60.175 2.525 L 73.175 2.525 A 0.5 0.5 0 0 1 73.675 3.025 L 73.675 16.025 A 0.5 0.5 0 0 1 73.175 16.525 L 60.175 16.525 A 0.5 0.5 0 0 1 59.675 16.025 L 59.675 3.025 A 0.5 0.5 0 0 1 60.175 2.525 Z M 279.25 2.525 L 292.25 2.525 A 0.5 0.5 0 0 1 292.75 3.025 L 292.75 16.025 A 0.5 0.5 0 0 1 292.25 16.525 L 279.25 16.525 A 0.5 0.5 0 0 1 278.75 16.025 L 278.75 3.025 A 0.5 0.5 0 0 1 279.25 2.525 Z M 41.125 23.956 L 54.125 23.956 A 0.5 0.5 0 0 1 54.625 24.456 L 54.625 37.456 A 0.5 0.5 0 0 1 54.125 37.956 L 41.125 37.956 A 0.5 0.5 0 0 1 40.625 37.456 L 40.625 24.456 A 0.5 0.5 0 0 1 41.125 23.956 Z M 79.225 23.956 L 92.225 23.956 A 0.5 0.5 0 0 1 92.725 24.456 L 92.725 37.456 A 0.5 0.5 0 0 1 92.225 37.956 L 79.225 37.956 A 0.5 0.5 0 0 1 78.725 37.456 L 78.725 24.456 A 0.5 0.5 0 0 1 79.225 23.956 Z M 260.2 23.956 L 273.2 23.956 A 0.5 0.5 0 0 1 273.7 24.456 L 273.7 37.456 A 0.5 0.5 0 0 1 273.2 37.956 L 260.2 37.956 A 0.5 0.5 0 0 1 259.7 37.456 L 259.7 24.456 A 0.5 0.5 0 0 1 260.2 23.956 Z M 298.3 23.956 L 311.3 23.956 A 0.5 0.5 0 0 1 311.8 24.456 L 311.8 37.456 A 0.5 0.5 0 0 1 311.3 37.956 L 298.3 37.956 A 0.5 0.5 0 0 1 297.8 37.456 L 297.8 24.456 A 0.5 0.5 0 0 1 298.3 23.956 Z M 132.414 92.164 L 125.914 103.422 A 0.5 0.5 0 0 1 125.231 103.605 L 113.972 97.105 A 0.5 0.5 0 0 1 113.789 96.422 L 120.289 85.164 A 0.5 0.5 0 0 1 120.972 84.981 L 132.231 91.481 A 0.5 0.5 0 0 1 132.414 92.164 Z M 232.136 85.164 L 238.636 96.422 A 0.5 0.5 0 0 1 238.453 97.105 L 227.194 103.605 A 0.5 0.5 0 0 1 226.511 103.422 L 220.011 92.164 A 0.5 0.5 0 0 1 220.194 91.481 L 231.453 84.981 A 0.5 0.5 0 0 1 232.136 85.164 Z" vector-effect="non-scaling-stroke"/></g></svg>