0
SECTION
2
HEADER
9
$INSUNITS
70
4
0
ENDSEC
0
SECTION
2
TABLES
0
TABLE
2
LTYPE
0
LTYPE
72
65
70
64
2
CONTINUOUS
3
______
73
0
40
0
0
ENDTAB
0
TABLE
2
LAYER
0
ENDTAB
0
ENDSEC
0
SECTION
2
ENTITIES
0
LINE
8
0
10
69.7
20
-2.525
11
82.7
21
-2.525
0
LINE
8
0
10
69.7
20
-16.525
11
82.7
21
-16.525
0
LINE
8
0
10
69.2
20
-3.025
11
69.2
21
-16.025
0
LINE
8
0
10
83.2
20
-3.025
11
83.2
21
-16.025
0
ARC
8
0
10
69.7
20
-3.025
40
0.5
50
90
51
180
0
ARC
8
0
10
82.7
20
-3.025
40
0.5
50
0
51
90
0
ARC
8
0
10
69.7
20
-16.025
40
0.5
50
180
51
270
0
ARC
8
0
10
82.7
20
-16.025
40
0.5
50
270
51
0
0
LINE
8
0
10
288.775
20
-2.525
11
301.775
21
-2.525
0
LINE
8
0
10
288.775
20
-16.525
11
301.775
21
-16.525
0
LINE
8
0
10
288.275
20
-3.025
11
288.275
21
-16.025
0
LINE
8
0
10
302.275
20
-3.025
11
302.275
21
-16.025
0
ARC
8
0
10
288.775
20
-3.025
40
0.5
50
90
51
180
0
ARC
8
0
10
301.775
20
-3.025
40
0.5
50
0
51
90
0
ARC
8
0
10
288.775
20
-16.025
40
0.5
50
180
51
270
0
ARC
8
0
10
301.775
20
-16.025
40
0.5
50
270
51
0
0
LINE
8
0
10
50.65
20
-4.90625
11
63.65
21
-4.90625
0
LINE
8
0
10
50.65
20
-18.90625
11
63.65
21
-18.90625
0
LINE
8
0
10
50.15
20
-5.40625
11
50.15
21
-18.40625
0
LINE
8
0
10
64.15
20
-5.40625
11
64.15
21
-18.40625
0
ARC
8
0
10
50.65
20
-5.40625
40
0.5
50
90
51
180
0
ARC
8
0
10
63.65
20
-5.40625
40
0.5
50
0
51
90
0
ARC
8
0
10
50.65
20
-18.40625
40
0.5
50
180
51
270
0
ARC
8
0
10
63.65
20
-18.40625
40
0.5
50
270
51
0
0
LINE
8
0
10
88.75
20
-4.90625
11
101.75
21
-4.90625
0
LINE
8
0
10
88.75
20
-18.90625
11
101.75
21
-18.90625
0
LINE
8
0
10
88.25
20
-5.40625
11
88.25
21
-18.40625
0
LINE
8
0
10
102.25
20
-5.40625
11
102.25
21
-18.40625
0
ARC
8
0
10
88.75
20
-5.40625
40
0.5
50
90
51
180
0
ARC
8
0
10
101.75
20
-5.40625
40
0.5
50
0
51
90
0
ARC
8
0
10
88.75
20
-18.40625
40
0.5
50
180
51
270
0
ARC
8
0
10
101.75
20
-18.40625
40
0.5
50
270
51
0
0
LINE
8
0
10
269.725
20
-4.90625
11
282.725
21
-4.90625
0
LINE
8
0
10
269.725
20
-18.90625
11
282.725
21
-18.90625
0
LINE
8
0
10
269.225
20
-5.40625
11
269.225
21
-18.40625
0
LINE
8
0
10
283.225
20
-5.40625
11
283.225
21
-18.40625
0
ARC
8
0
10
269.725
20
-5.40625
40
0.5
50
90
51
180
0
ARC
8
0
10
282.725
20
-5.40625
40
0.5
50
0
51
90
0
ARC
8
0
10
269.725
20
-18.40625
40
0.5
50
180
51
270
0
ARC
8
0
10
282.725
20
-18.40625
40
0.5
50
270
51
0
0
LINE
8
0
10
307.825
20
-4.90625
11
320.825
21
-4.90625
0
LINE
8
0
10
307.825
20
-18.90625
11
320.825
21
-18.90625
0
LINE
8
0
10
307.325
20
-5.40625
11
307.325
21
-18.40625
0
LINE
8
0
10
321.325
20
-5.40625
11
321.325
21
-18.40625
0
ARC
8
0
10
307.825
20
-5.40625
40
0.5
50
90
51
180
0
ARC
8
0
10
320.825
20
-5.40625
40
0.5
50
0
51
90
0
ARC
8
0
10
307.825
20
-18.40625
40
0.5
50
180
51
270
0
ARC
8
0
10
320.825
20
-18.40625
40
0.5
50
270
51
0
0
LINE
8
0
10
107.8
20
-7.2875
11
120.8
21
-7.2875
0
LINE
8
0
10
107.8
20
-21.2875
11
120.8
21
-21.2875
0
LINE
8
0
10
107.3
20
-7.7875
11
107.3
21
-20.7875
0
LINE
8
0
10
121.3
20
-7.7875
11
121.3
21
-20.7875
0
ARC
8
0
10
107.8
20
-7.7875
40
0.5
50
90
51
180
0
ARC
8
0
10
120.8
20
-7.7875
40
0.5
50
0
51
90
0
ARC
8
0
10
107.8
20
-20.7875
40
0.5
50
180
51
270
0
ARC
8
0
10
120.8
20
-20.7875
40
0.5
50
270
51
0
0
LINE
8
0
10
250.675
20
-7.2875
11
263.675
21
-7.2875
0
LINE
8
0
10
250.675
20
-21.2875
11
263.675
21
-21.2875
0
LINE
8
0
10
250.175
20
-7.7875
11
250.175
21
-20.7875
0
LINE
8
0
10
264.175
20
-7.7875
11
264.175
21
-20.7875
0
ARC
8
0
10
250.675
20
-7.7875
40
0.5
50
90
51
180
0
ARC
8
0
10
263.675
20
-7.7875
40
0.5
50
0
51
90
0
ARC
8
0
10
250.675
20
-20.7875
40
0.5
50
180
51
270
0
ARC
8
0
10
263.675
20
-20.7875
40
0.5
50
270
51
0
0
LINE
8
0
10
31.6
20
-9.66875
11
44.6
21
-9.66875
0
LINE
8
0
10
31.6
20
-23.66875
11
44.6
21
-23.66875
0
LINE
8
0
10
31.1
20
-10.16875
11
31.1
21
-23.16875
0
LINE
8
0
10
45.1
20
-10.16875
11
45.1
21
-23.16875
0
ARC
8
0
10
31.6
20
-10.16875
40
0.5
50
90
51
180
0
ARC
8
0
10
44.6
20
-10.16875
40
0.5
50
0
51
90
0
ARC
8
0
10
31.6
20
-23.16875
40
0.5
50
180
51
270
0
ARC
8
0
10
44.6
20
-23.16875
40
0.5
50
270
51
0
0
LINE
8
0
10
326.875
20
-9.66875
11
339.875
21
-9.66875
0
LINE
8
0
10
326.875
20
-23.66875
11
339.875
21
-23.66875
0
LINE
8
0
10
326.375
20
-10.16875
11
326.375
21
-23.16875
0
LINE
8
0
10
340.375
20
-10.16875
11
340.375
21
-23.16875
0
ARC
8
0
10
326.875
20
-10.16875
40
0.5
50
90
51
180
0
ARC
8
0
10
339.875
20
-10.16875
40
0.5
50
0
51
90
0
ARC
8
0
10
326.875
20
-23.16875
40
0.5
50
180
51
270
0
ARC
8
0
10
339.875
20
-23.16875
40
0.5
50
270
51
0
0
LINE
8
0
10
12.55
20
-9.764
11
25.55
21
-9.764
0
LINE
8
0
10
12.55
20
-23.764
11
25.55
21
-23.764
0
LINE
8
0
10
12.05
20
-10.264
11
12.05
21
-23.264
0
LINE
8
0
10
26.05
20
-10.264
11
26.05
21
-23.264
0
ARC
8
0
10
12.55
20
-10.264
40
0.5
50
90
51
180
0
ARC
8
0
10
25.55
20
-10.264
40
0.5
50
0
51
90
0
ARC
8
0
10
12.55
20
-23.264
40
0.5
50
180
51
270
0
ARC
8
0
10
25.55
20
-23.264
40
0.5
50
270
51
0
0
LINE
8
0
10
345.925
20
-9.764
11
358.925
21
-9.764
0
LINE
8
0
10
345.925
20
-23.764
11
358.925
21
-23.764
0
LINE
8
0
10
345.425
20
-10.264
11
345.425
21
-23.264
0
LINE
8
0
10
359.425
20
-10.264
11
359.425
21
-23.264
0
ARC
8
0
10
345.925
20
-10.264
40
0.5
50
90
51
180
0
ARC
8
0
10
358.925
20
-10.264
40
0.5
50
0
51
90
0
ARC
8
0
10
345.925
20
-23.264
40
0.5
50
180
51
270
0
ARC
8
0
10
358.925
20
-23.264
40
0.5
50
270
51
0
0
LINE
8
0
10
69.7
20
-21.575
11
82.7
21
-21.575
0
LINE
8
0
10
69.7
20
-35.575
11
82.7
21
-35.575
0
LINE
8
0
10
69.2
20
-22.075
11
69.2
21
-35.075
0
LINE
8
0
10
83.2
20
-22.075
11
83.2
21
-35.075
0
ARC
8
0
10
69.7
20
-22.075
40
0.5
50
90
51
180
0
ARC
8
0
10
82.7
20
-22.075
40
0.5
50
0
51
90
0
ARC
8
0
10
69.7
20
-35.075
40
0.5
50
180
51
270
0
ARC
8
0
10
82.7
20
-35.075
40
0.5
50
270
51
0
0
LINE
8
0
10
288.775
20
-21.575
11
301.775
21
-21.575
0
LINE
8
0
10
288.775
20
-35.575
11
301.775
21
-35.575
0
LINE
8
0
10
288.275
20
-22.075
11
288.275
21
-35.075
0
LINE
8
0
10
302.275
20
-22.075
11
302.275
21
-35.075
0
ARC
8
0
10
288.775
20
-22.075
40
0.5
50
90
51
180
0
ARC
8
0
10
301.775
20
-22.075
40
0.5
50
0
51
90
0
ARC
8
0
10
288.775
20
-35.075
40
0.5
50
180
51
270
0
ARC
8
0
10
301.775
20
-35.075
40
0.5
50
270
51
0
0
LINE
8
0
10
50.65
20
-23.95625
11
63.65
21
-23.95625
0
LINE
8
0
10
50.65
20
-37.95625
11
63.65
21
-37.95625
0
LINE
8
0
10
50.15
20
-24.45625
11
50.15
21
-37.45625
0
LINE
8
0
10
64.15
20
-24.45625
11
64.15
21
-37.45625
0
ARC
8
0
10
50.65
20
-24.45625
40
0.5
50
90
51
180
0
ARC
8
0
10
63.65
20
-24.45625
40
0.5
50
0
51
90
0
ARC
8
0
10
50.65
20
-37.45625
40
0.5
50
180
51
270
0
ARC
8
0
10
63.65
20
-37.45625
40
0.5
50
270
51
0
0
LINE
8
0
10
88.75
20
-23.95625
11
101.75
21
-23.95625
0
LINE
8
0
10
88.75
20
-37.95625
11
101.75
21
-37.95625
0
LINE
8
0
10
88.25
20
-24.45625
11
88.25
21
-37.45625
0
LINE
8
0
10
102.25
20
-24.45625
11
102.25
21
-37.45625
0
ARC
8
0
10
88.75
20
-24.45625
40
0.5
50
90
51
180
0
ARC
8
0
10
101.75
20
-24.45625
40
0.5
50
0
51
90
0
ARC
8
0
10
88.75
20
-37.45625
40
0.5
50
180
51
270
0
ARC
8
0
10
101.75
20
-37.45625
40
0.5
50
270
51
0
0
LINE
8
0
10
269.725
20
-23.95625
11
282.725
21
-23.95625
0
LINE
8
0
10
269.725
20
-37.95625
11
282.725
21
-37.95625
0
LINE
8
0
10
269.225
20
-24.45625
11
269.225
21
-37.45625
0
LINE
8
0
10
283.225
20
-24.45625
11
283.225
21
-37.45625
0
ARC
8
0
10
269.725
20
-24.45625
40
0.5
50
90
51
180
0
ARC
8
0
10
282.725
20
-24.45625
40
0.5
50
0
51
90
0
ARC
8
0
10
269.725
20
-37.45625
40
0.5
50
180
51
270
0
ARC
8
0
10
282.725
20
-37.45625
40
0.5
50
270
51
0
0
LINE
8
0
10
307.825
20
-23.95625
11
320.825
21
-23.95625
0
LINE
8
0
10
307.825
20
-37.95625
11
320.825
21
-37.95625
0
LINE
8
0
10
307.325
20
-24.45625
11
307.325
21
-37.45625
0
LINE
8
0
10
321.325
20
-24.45625
11
321.325
21
-37.45625
0
ARC
8
0
10
307.825
20
-24.45625
40
0.5
50
90
51
180
0
ARC
8
0
10
320.825
20
-24.45625
40
0.5
50
0
51
90
0
ARC
8
0
10
307.825
20
-37.45625
40
0.5
50
180
51
270
0
ARC
8
0
10
320.825
20
-37.45625
40
0.5
50
270
51
0
0
LINE
8
0
10
107.8
20
-26.3375
11
120.8
21
-26.3375
0
LINE
8
0
10
107.8
20
-40.3375
11
120.8
21
-40.3375
0
LINE
8
0
10
107.3
20
-26.8375
11
107.3
21
-39.8375
0
LINE
8
0
10
121.3
20
-26.8375
11
121.3
21
-39.8375
0
ARC
8
0
10
107.8
20
-26.8375
40
0.5
50
90
51
180
0
ARC
8
0
10
120.8
20
-26.8375
40
0.5
50
0
51
90
0
ARC
8
0
10
107.8
20
-39.8375
40
0.5
50
180
51
270
0
ARC
8
0
10
120.8
20
-39.8375
40
0.5
50
270
51
0
0
LINE
8
0
10
250.675
20
-26.3375
11
263.675
21
-26.3375
0
LINE
8
0
10
250.675
20
-40.3375
11
263.675
21
-40.3375
0
LINE
8
0
10
250.175
20
-26.8375
11
250.175
21
-39.8375
0
LINE
8
0
10
264.175
20
-26.8375
11
264.175
21
-39.8375
0
ARC
8
0
10
250.675
20
-26.8375
40
0.5
50
90
51
180
0
ARC
8
0
10
263.675
20
-26.8375
40
0.5
50
0
51
90
0
ARC
8
0
10
250.675
20
-39.8375
40
0.5
50
180
51
270
0
ARC
8
0
10
263.675
20
-39.8375
40
0.5
50
270
51
0
0
LINE
8
0
10
31.6
20
-28.71875
11
44.6
21
-28.71875
0
LINE
8
0
10
31.6
20
-42.71875
11
44.6
21
-42.71875
0
LINE
8
0
10
31.1
20
-29.21875
11
31.1
21
-42.21875
0
LINE
8
0
10
45.1
20
-29.21875
11
45.1
21
-42.21875
0
ARC
8
0
10
31.6
20
-29.21875
40
0.5
50
90
51
180
0
ARC
8
0
10
44.6
20
-29.21875
40
0.5
50
0
51
90
0
ARC
8
0
10
31.6
20
-42.21875
40
0.5
50
180
51
270
0
ARC
8
0
10
44.6
20
-42.21875
40
0.5
50
270
51
0
0
LINE
8
0
10
326.875
20
-28.71875
11
339.875
21
-28.71875
0
LINE
8
0
10
326.875
20
-42.71875
11
339.875
21
-42.71875
0
LINE
8
0
10
326.375
20
-29.21875
11
326.375
21
-42.21875
0
LINE
8
0
10
340.375
20
-29.21875
11
340.375
21
-42.21875
0
ARC
8
0
10
326.875
20
-29.21875
40
0.5
50
90
51
180
0
ARC
8
0
10
339.875
20
-29.21875
40
0.5
50
0
51
90
0
ARC
8
0
10
326.875
20
-42.21875
40
0.5
50
180
51
270
0
ARC
8
0
10
339.875
20
-42.21875
40
0.5
50
270
51
0
0
LINE
8
0
10
12.55
20
-28.814
11
25.55
21
-28.814
0
LINE
8
0
10
12.55
20
-42.814
11
25.55
21
-42.814
0
LINE
8
0
10
12.05
20
-29.314
11
12.05
21
-42.314
0
LINE
8
0
10
26.05
20
-29.314
11
26.05
21
-42.314
0
ARC
8
0
10
12.55
20
-29.314
40
0.5
50
90
51
180
0
ARC
8
0
10
25.55
20
-29.314
40
0.5
50
0
51
90
0
ARC
8
0
10
12.55
20
-42.314
40
0.5
50
180
51
270
0
ARC
8
0
10
25.55
20
-42.314
40
0.5
50
270
51
0
0
LINE
8
0
10
345.925
20
-28.814
11
358.925
21
-28.814
0
LINE
8
0
10
345.925
20
-42.814
11
358.925
21
-42.814
0
LINE
8
0
10
345.425
20
-29.314
11
345.425
21
-42.314
0
LINE
8
0
10
359.425
20
-29.314
11
359.425
21
-42.314
0
ARC
8
0
10
345.925
20
-29.314
40
0.5
50
90
51
180
0
ARC
8
0
10
358.925
20
-29.314
40
0.5
50
0
51
90
0
ARC
8
0
10
345.925
20
-42.314
40
0.5
50
180
51
270
0
ARC
8
0
10
358.925
20
-42.314
40
0.5
50
270
51
0
0
LINE
8
0
10
69.7
20
-40.625
11
82.7
21
-40.625
0
LINE
8
0
10
69.7
20
-54.625
11
82.7
21
-54.625
0
LINE
8
0
10
69.2
20
-41.125
11
69.2
21
-54.125
0
LINE
8
0
10
83.2
20
-41.125
11
83.2
21
-54.125
0
ARC
8
0
10
69.7
20
-41.125
40
0.5
50
90
51
180
0
ARC
8
0
10
82.7
20
-41.125
40
0.5
50
0
51
90
0
ARC
8
0
10
69.7
20
-54.125
40
0.5
50
180
51
270
0
ARC
8
0
10
82.7
20
-54.125
40
0.5
50
270
51
0
0
LINE
8
0
10
288.775
20
-40.625
11
301.775
21
-40.625
0
LINE
8
0
10
288.775
20
-54.625
11
301.775
21
-54.625
0
LINE
8
0
10
288.275
20
-41.125
11
288.275
21
-54.125
0
LINE
8
0
10
302.275
20
-41.125
11
302.275
21
-54.125
0
ARC
8
0
10
288.775
20
-41.125
40
0.5
50
90
51
180
0
ARC
8
0
10
301.775
20
-41.125
40
0.5
50
0
51
90
0
ARC
8
0
10
288.775
20
-54.125
40
0.5
50
180
51
270
0
ARC
8
0
10
301.775
20
-54.125
40
0.5
50
270
51
0
0
LINE
8
0
10
50.65
20
-43.00625
11
63.65
21
-43.00625
0
LINE
8
0
10
50.65
20
-57.00625
11
63.65
21
-57.00625
0
LINE
8
0
10
50.15
20
-43.50625
11
50.15
21
-56.50625
0
LINE
8
0
10
64.15
20
-43.50625
11
64.15
21
-56.50625
0
ARC
8
0
10
50.65
20
-43.50625
40
0.5
50
90
51
180
0
ARC
8
0
10
63.65
20
-43.50625
40
0.5
50
0
51
90
0
ARC
8
0
10
50.65
20
-56.50625
40
0.5
50
180
51
270
0
ARC
8
0
10
63.65
20
-56.50625
40
0.5
50
270
51
0
0
LINE
8
0
10
88.75
20
-43.00625
11
101.75
21
-43.00625
0
LINE
8
0
10
88.75
20
-57.00625
11
101.75
21
-57.00625
0
LINE
8
0
10
88.25
20
-43.50625
11
88.25
21
-56.50625
0
LINE
8
0
10
102.25
20
-43.50625
11
102.25
21
-56.50625
0
ARC
8
0
10
88.75
20
-43.50625
40
0.5
50
90
51
180
0
ARC
8
0
10
101.75
20
-43.50625
40
0.5
50
0
51
90
0
ARC
8
0
10
88.75
20
-56.50625
40
0.5
50
180
51
270
0
ARC
8
0
10
101.75
20
-56.50625
40
0.5
50
270
51
0
0
LINE
8
0
10
269.725
20
-43.00625
11
282.725
21
-43.00625
0
LINE
8
0
10
269.725
20
-57.00625
11
282.725
21
-57.00625
0
LINE
8
0
10
269.225
20
-43.50625
11
269.225
21
-56.50625
0
LINE
8
0
10
283.225
20
-43.50625
11
283.225
21
-56.50625
0
ARC
8
0
10
269.725
20
-43.50625
40
0.5
50
90
51
180
0
ARC
8
0
10
282.725
20
-43.50625
40
0.5
50
0
51
90
0
ARC
8
0
10
269.725
20
-56.50625
40
0.5
50
180
51
270
0
ARC
8
0
10
282.725
20
-56.50625
40
0.5
50
270
51
0
0
LINE
8
0
10
307.825
20
-43.00625
11
320.825
21
-43.00625
0
LINE
8
0
10
307.825
20
-57.00625
11
320.825
21
-57.00625
0
LINE
8
0
10
307.325
20
-43.50625
11
307.325
21
-56.50625
0
LINE
8
0
10
321.325
20
-43.50625
11
321.325
21
-56.50625
0
ARC
8
0
10
307.825
20
-43.50625
40
0.5
50
90
51
180
0
ARC
8
0
10
320.825
20
-43.50625
40
0.5
50
0
51
90
0
ARC
8
0
10
307.825
20
-56.50625
40
0.5
50
180
51
270
0
ARC
8
0
10
320.825
20
-56.50625
40
0.5
50
270
51
0
0
LINE
8
0
10
107.8
20
-45.3875
11
120.8
21
-45.3875
0
LINE
8
0
10
107.8
20
-59.3875
11
120.8
21
-59.3875
0
LINE
8
0
10
107.3
20
-45.8875
11
107.3
21
-58.8875
0
LINE
8
0
10
121.3
20
-45.8875
11
121.3
21
-58.8875
0
ARC
8
0
10
107.8
20
-45.8875
40
0.5
50
90
51
180
0
ARC
8
0
10
120.8
20
-45.8875
40
0.5
50
0
51
90
0
ARC
8
0
10
107.8
20
-58.8875
40
0.5
50
180
51
270
0
ARC
8
0
10
120.8
20
-58.8875
40
0.5
50
270
51
0
0
LINE
8
0
10
250.675
20
-45.3875
11
263.675
21
-45.3875
0
LINE
8
0
10
250.675
20
-59.3875
11
263.675
21
-59.3875
0
LINE
8
0
10
250.175
20
-45.8875
11
250.175
21
-58.8875
0
LINE
8
0
10
264.175
20
-45.8875
11
264.175
21
-58.8875
0
ARC
8
0
10
250.675
20
-45.8875
40
0.5
50
90
51
180
0
ARC
8
0
10
263.675
20
-45.8875
40
0.5
50
0
51
90
0
ARC
8
0
10
250.675
20
-58.8875
40
0.5
50
180
51
270
0
ARC
8
0
10
263.675
20
-58.8875
40
0.5
50
270
51
0
0
LINE
8
0
10
31.6
20
-47.76875
11
44.6
21
-47.76875
0
LINE
8
0
10
31.6
20
-61.76875
11
44.6
21
-61.76875
0
LINE
8
0
10
31.1
20
-48.26875
11
31.1
21
-61.26875
0
LINE
8
0
10
45.1
20
-48.26875
11
45.1
21
-61.26875
0
ARC
8
0
10
31.6
20
-48.26875
40
0.5
50
90
51
180
0
ARC
8
0
10
44.6
20
-48.26875
40
0.5
50
0
51
90
0
ARC
8
0
10
31.6
20
-61.26875
40
0.5
50
180
51
270
0
ARC
8
0
10
44.6
20
-61.26875
40
0.5
50
270
51
0
0
LINE
8
0
10
326.875
20
-47.76875
11
339.875
21
-47.76875
0
LINE
8
0
10
326.875
20
-61.76875
11
339.875
21
-61.76875
0
LINE
8
0
10
326.375
20
-48.26875
11
326.375
21
-61.26875
0
LINE
8
0
10
340.375
20
-48.26875
11
340.375
21
-61.26875
0
ARC
8
0
10
326.875
20
-48.26875
40
0.5
50
90
51
180
0
ARC
8
0
10
339.875
20
-48.26875
40
0.5
50
0
51
90
0
ARC
8
0
10
326.875
20
-61.26875
40
0.5
50
180
51
270
0
ARC
8
0
10
339.875
20
-61.26875
40
0.5
50
270
51
0
0
LINE
8
0
10
12.55
20
-47.864
11
25.55
21
-47.864
0
LINE
8
0
10
12.55
20
-61.864
11
25.55
21
-61.864
0
LINE
8
0
10
12.05
20
-48.364
11
12.05
21
-61.364
0
LINE
8
0
10
26.05
20
-48.364
11
26.05
21
-61.364
0
ARC
8
0
10
12.55
20
-48.364
40
0.5
50
90
51
180
0
ARC
8
0
10
25.55
20
-48.364
40
0.5
50
0
51
90
0
ARC
8
0
10
12.55
20
-61.364
40
0.5
50
180
51
270
0
ARC
8
0
10
25.55
20
-61.364
40
0.5
50
270
51
0
0
LINE
8
0
10
345.925
20
-47.864
11
358.925
21
-47.864
0
LINE
8
0
10
345.925
20
-61.864
11
358.925
21
-61.864
0
LINE
8
0
10
345.425
20
-48.364
11
345.425
21
-61.364
0
LINE
8
0
10
359.425
20
-48.364
11
359.425
21
-61.364
0
ARC
8
0
10
345.925
20
-48.364
40
0.5
50
90
51
180
0
ARC
8
0
10
358.925
20
-48.364
40
0.5
50
0
51
90
0
ARC
8
0
10
345.925
20
-61.364
40
0.5
50
180
51
270
0
ARC
8
0
10
358.925
20
-61.364
40
0.5
50
270
51
0
0
LINE
8
0
10
69.7
20
-59.675
11
82.7
21
-59.675
0
LINE
8
0
10
69.7
20
-73.675
11
82.7
21
-73.675
0
LINE
8
0
10
69.2
20
-60.175
11
69.2
21
-73.175
0
LINE
8
0
10
83.2
20
-60.175
11
83.2
21
-73.175
0
ARC
8
0
10
69.7
20
-60.175
40
0.5
50
90
51
180
0
ARC
8
0
10
82.7
20
-60.175
40
0.5
50
0
51
90
0
ARC
8
0
10
69.7
20
-73.175
40
0.5
50
180
51
270
0
ARC
8
0
10
82.7
20
-73.175
40
0.5
50
270
51
0
0
LINE
8
0
10
288.775
20
-59.675
11
301.775
21
-59.675
0
LINE
8
0
10
288.775
20
-73.675
11
301.775
21
-73.675
0
LINE
8
0
10
288.275
20
-60.175
11
288.275
21
-73.175
0
LINE
8
0
10
302.275
20
-60.175
11
302.275
21
-73.175
0
ARC
8
0
10
288.775
20
-60.175
40
0.5
50
90
51
180
0
ARC
8
0
10
301.775
20
-60.175
40
0.5
50
0
51
90
0
ARC
8
0
10
288.775
20
-73.175
40
0.5
50
180
51
270
0
ARC
8
0
10
301.775
20
-73.175
40
0.5
50
270
51
0
0
LINE
8
0
10
50.65
20
-62.05625
11
63.65
21
-62.05625
0
LINE
8
0
10
50.65
20
-76.05625
11
63.65
21
-76.05625
0
LINE
8
0
10
50.15
20
-62.55625
11
50.15
21
-75.55625
0
LINE
8
0
10
64.15
20
-62.55625
11
64.15
21
-75.55625
0
ARC
8
0
10
50.65
20
-62.55625
40
0.5
50
90
51
180
0
ARC
8
0
10
63.65
20
-62.55625
40
0.5
50
0
51
90
0
ARC
8
0
10
50.65
20
-75.55625
40
0.5
50
180
51
270
0
ARC
8
0
10
63.65
20
-75.55625
40
0.5
50
270
51
0
0
LINE
8
0
10
88.75
20
-62.05625
11
101.75
21
-62.05625
0
LINE
8
0
10
88.75
20
-76.05625
11
101.75
21
-76.05625
0
LINE
8
0
10
88.25
20
-62.55625
11
88.25
21
-75.55625
0
LINE
8
0
10
102.25
20
-62.55625
11
102.25
21
-75.55625
0
ARC
8
0
10
88.75
20
-62.55625
40
0.5
50
90
51
180
0
ARC
8
0
10
101.75
20
-62.55625
40
0.5
50
0
51
90
0
ARC
8
0
10
88.75
20
-75.55625
40
0.5
50
180
51
270
0
ARC
8
0
10
101.75
20
-75.55625
40
0.5
50
270
51
0
0
LINE
8
0
10
269.725
20
-62.05625
11
282.725
21
-62.05625
0
LINE
8
0
10
269.725
20
-76.05625
11
282.725
21
-76.05625
0
LINE
8
0
10
269.225
20
-62.55625
11
269.225
21
-75.55625
0
LINE
8
0
10
283.225
20
-62.55625
11
283.225
21
-75.55625
0
ARC
8
0
10
269.725
20
-62.55625
40
0.5
50
90
51
180
0
ARC
8
0
10
282.725
20
-62.55625
40
0.5
50
0
51
90
0
ARC
8
0
10
269.725
20
-75.55625
40
0.5
50
180
51
270
0
ARC
8
0
10
282.725
20
-75.55625
40
0.5
50
270
51
0
0
LINE
8
0
10
307.825
20
-62.05625
11
320.825
21
-62.05625
0
LINE
8
0
10
307.825
20
-76.05625
11
320.825
21
-76.05625
0
LINE
8
0
10
307.325
20
-62.55625
11
307.325
21
-75.55625
0
LINE
8
0
10
321.325
20
-62.55625
11
321.325
21
-75.55625
0
ARC
8
0
10
307.825
20
-62.55625
40
0.5
50
90
51
180
0
ARC
8
0
10
320.825
20
-62.55625
40
0.5
50
0
51
90
0
ARC
8
0
10
307.825
20
-75.55625
40
0.5
50
180
51
270
0
ARC
8
0
10
320.825
20
-75.55625
40
0.5
50
270
51
0
0
LINE
8
0
10
107.8
20
-64.4375
11
120.8
21
-64.4375
0
LINE
8
0
10
107.8
20
-78.4375
11
120.8
21
-78.4375
0
LINE
8
0
10
107.3
20
-64.9375
11
107.3
21
-77.9375
0
LINE
8
0
10
121.3
20
-64.9375
11
121.3
21
-77.9375
0
ARC
8
0
10
107.8
20
-64.9375
40
0.5
50
90
51
180
0
ARC
8
0
10
120.8
20
-64.9375
40
0.5
50
0
51
90
0
ARC
8
0
10
107.8
20
-77.9375
40
0.5
50
180
51
270
0
ARC
8
0
10
120.8
20
-77.9375
40
0.5
50
270
51
0
0
LINE
8
0
10
250.675
20
-64.4375
11
263.675
21
-64.4375
0
LINE
8
0
10
250.675
20
-78.4375
11
263.675
21
-78.4375
0
LINE
8
0
10
250.175
20
-64.9375
11
250.175
21
-77.9375
0
LINE
8
0
10
264.175
20
-64.9375
11
264.175
21
-77.9375
0
ARC
8
0
10
250.675
20
-64.9375
40
0.5
50
90
51
180
0
ARC
8
0
10
263.675
20
-64.9375
40
0.5
50
0
51
90
0
ARC
8
0
10
250.675
20
-77.9375
40
0.5
50
180
51
270
0
ARC
8
0
10
263.675
20
-77.9375
40
0.5
50
270
51
0
0
LINE
8
0
10
31.6
20
-66.81875
11
44.6
21
-66.81875
0
LINE
8
0
10
31.6
20
-80.81875
11
44.6
21
-80.81875
0
LINE
8
0
10
31.1
20
-67.31875
11
31.1
21
-80.31875
0
LINE
8
0
10
45.1
20
-67.31875
11
45.1
21
-80.31875
0
ARC
8
0
10
31.6
20
-67.31875
40
0.5
50
90
51
180
0
ARC
8
0
10
44.6
20
-67.31875
40
0.5
50
0
51
90
0
ARC
8
0
10
31.6
20
-80.31875
40
0.5
50
180
51
270
0
ARC
8
0
10
44.6
20
-80.31875
40
0.5
50
270
51
0
0
LINE
8
0
10
326.875
20
-66.81875
11
339.875
21
-66.81875
0
LINE
8
0
10
326.875
20
-80.81875
11
339.875
21
-80.81875
0
LINE
8
0
10
326.375
20
-67.31875
11
326.375
21
-80.31875
0
LINE
8
0
10
340.375
20
-67.31875
11
340.375
21
-80.31875
0
ARC
8
0
10
326.875
20
-67.31875
40
0.5
50
90
51
180
0
ARC
8
0
10
339.875
20
-67.31875
40
0.5
50
0
51
90
0
ARC
8
0
10
326.875
20
-80.31875
40
0.5
50
180
51
270
0
ARC
8
0
10
339.875
20
-80.31875
40
0.5
50
270
51
0
0
LINE
8
0
10
12.55
20
-66.914
11
25.55
21
-66.914
0
LINE
8
0
10
12.55
20
-80.914
11
25.55
21
-80.914
0
LINE
8
0
10
12.05
20
-67.414
11
12.05
21
-80.414
0
LINE
8
0
10
26.05
20
-67.414
11
26.05
21
-80.414
0
ARC
8
0
10
12.55
20
-67.414
40
0.5
50
90
51
180
0
ARC
8
0
10
25.55
20
-67.414
40
0.5
50
0
51
90
0
ARC
8
0
10
12.55
20
-80.414
40
0.5
50
180
51
270
0
ARC
8
0
10
25.55
20
-80.414
40
0.5
50
270
51
0
0
LINE
8
0
10
345.925
20
-66.914
11
358.925
21
-66.914
0
LINE
8
0
10
345.925
20
-80.914
11
358.925
21
-80.914
0
LINE
8
0
10
345.425
20
-67.414
11
345.425
21
-80.414
0
LINE
8
0
10
359.425
20
-67.414
11
359.425
21
-80.414
0
ARC
8
0
10
345.925
20
-67.414
40
0.5
50
90
51
180
0
ARC
8
0
10
358.925
20
-67.414
40
0.5
50
0
51
90
0
ARC
8
0
10
345.925
20
-80.414
40
0.5
50
180
51
270
0
ARC
8
0
10
358.925
20
-80.414
40
0.5
50
270
51
0
0
LINE
8
0
10
79.225
20
-81.2015
11
92.225
21
-81.2015
0
LINE
8
0
10
79.225
20
-95.2015
11
92.225
21
-95.2015
0
LINE
8
0
10
78.725
20
-81.7015
11
78.725
21
-94.7015
0
LINE
8
0
10
92.725
20
-81.7015
11
92.725
21
-94.7015
0
ARC
8
0
10
79.225
20
-81.7015
40
0.5
50
90
51
180
0
ARC
8
0
10
92.225
20
-81.7015
40
0.5
50
0
51
90
0
ARC
8
0
10
79.225
20
-94.7015
40
0.5
50
180
51
270
0
ARC
8
0
10
92.225
20
-94.7015
40
0.5
50
270
51
0
0
LINE
8
0
10
279.25
20
-81.2015
11
292.25
21
-81.2015
0
LINE
8
0
10
279.25
20
-95.2015
11
292.25
21
-95.2015
0
LINE
8
0
10
278.75
20
-81.7015
11
278.75
21
-94.7015
0
LINE
8
0
10
292.75
20
-81.7015
11
292.75
21
-94.7015
0
ARC
8
0
10
279.25
20
-81.7015
40
0.5
50
90
51
180
0
ARC
8
0
10
292.25
20
-81.7015
40
0.5
50
0
51
90
0
ARC
8
0
10
279.25
20
-94.7015
40
0.5
50
180
51
270
0
ARC
8
0
10
292.25
20
-94.7015
40
0.5
50
270
51
0
0
LINE
8
0
10
101.859673
20
-82.6214835
11
114.4167088
21
-85.9861311
0
LINE
8
0
10
98.2362064
20
-96.1444451
11
110.7932422
21
-99.5090927
0
LINE
8
0
10
101.2473006
20
-82.9750369
11
97.882653
21
-95.5320727
0
LINE
8
0
10
114.7702622
20
-86.5985035
11
111.4056146
21
-99.1555393
0
ARC
8
0
10
101.7302635
20
-83.1044464
40
0.5
50
75
51
165
0
ARC
8
0
10
114.2872993
20
-86.469094
40
0.5
50
345
51
75
0
ARC
8
0
10
98.3656159
20
-95.6614822
40
0.5
50
165
51
255
0
ARC
8
0
10
110.9226517
20
-99.0261298
40
0.5
50
255
51
345
0
LINE
8
0
10
141.9386408
20
-92.1637539
11
135.4386408
21
-103.4220841
0
LINE
8
0
10
129.8142852
20
-85.1637539
11
123.3142852
21
-96.4220841
0
LINE
8
0
10
141.7556281
20
-91.4807412
11
130.4972979
21
-84.9807412
0
LINE
8
0
10
134.7556281
20
-103.6050968
11
123.4972979
21
-97.1050968
0
ARC
8
0
10
141.5056281
20
-91.9137539
40
0.5
50
330
51
60
0
ARC
8
0
10
135.0056281
20
-103.1720841
40
0.5
50
240
51
330
0
ARC
8
0
10
130.2472979
20
-85.4137539
40
0.5
50
60
51
150
0
ARC
8
0
10
123.7472979
20
-96.6720841
40
0.5
50
150
51
240
0
LINE
8
0
10
241.6607148
20
-85.1637539
11
248.1607148
21
-96.4220841
0
LINE
8
0
10
229.5363592
20
-92.1637539
11
236.0363592
21
-103.4220841
0
LINE
8
0
10
240.9777021
20
-84.9807412
11
229.7193719
21
-91.4807412
0
LINE
8
0
10
247.9777021
20
-97.1050968
11
236.7193719
21
-103.6050968
0
ARC
8
0
10
241.2277021
20
-85.4137539
40
0.5
50
30
51
120
0
ARC
8
0
10
247.7277021
20
-96.6720841
40
0.5
50
300
51
30
0
ARC
8
0
10
229.9693719
20
-91.9137539
40
0.5
50
120
51
210
0
ARC
8
0
10
236.4693719
20
-103.1720841
40
0.5
50
210
51
300
0
LINE
8
0
10
257.0582912
20
-85.9861311
11
269.615327
21
-82.6214835
0
LINE
8
0
10
260.6817578
20
-99.5090927
11
273.2387936
21
-96.1444451
0
LINE
8
0
10
256.7047378
20
-86.5985035
11
260.0693854
21
-99.1555393
0
LINE
8
0
10
270.2276994
20
-82.9750369
11
273.592347
21
-95.5320727
0
ARC
8
0
10
257.1877007
20
-86.469094
40
0.5
50
105
51
195
0
ARC
8
0
10
269.7447365
20
-83.1044464
40
0.5
50
15
51
105
0
ARC
8
0
10
260.5523483
20
-99.0261298
40
0.5
50
195
51
285
0
ARC
8
0
10
273.1093841
20
-95.6614822
40
0.5
50
285
51
15
0
LINE
8
0
10
9.525
20
-110.961669
11
361.95
21
-110.961669
0
LINE
8
0
10
9.525
20
0
11
361.95
21
0
0
LINE
8
0
10
9.525
20
-110.961669
11
9.525
21
0
0
LINE
8
0
10
361.95
20
-110.961669
11
361.95
21
0
0
ENDSEC
0
EOF